<svg width="36" height="36" viewBox="0 0 36 36" fill="none" xmlns="http://www.w3.org/2000/svg">
<path d="M33.3587 3.43993C33.1039 3.22457 32.794 3.08141 32.4625 3.02588C32.1309 2.97035 31.7901 3.00455 31.4769 3.1248L2.65105 14.1837C2.12786 14.3834 1.68499 14.7444 1.38909 15.2122C1.09319 15.68 0.960268 16.2293 1.01032 16.7775C1.06037 17.3258 1.29069 17.8432 1.66663 18.2521C2.04256 18.6609 2.54377 18.939 3.09483 19.0445L10.1043 20.3929V28.0983C10.1043 28.6542 10.2738 29.1975 10.591 29.6583C10.9082 30.1192 11.3587 30.4765 11.8846 30.6845C12.4105 30.8926 12.9878 30.9417 13.5425 30.8258C14.0971 30.7098 14.6037 30.434 14.9972 30.0337L18.2218 26.7555L23.5244 31.3054C23.8943 31.6243 24.3423 31.8435 24.8246 31.9417C25.3069 32.0399 25.8069 32.0137 26.2757 31.8655C26.7446 31.7174 27.1661 31.4524 27.4991 31.0966C27.8322 30.7408 28.0652 30.3063 28.1755 29.8357L33.9532 5.21778C34.0284 4.89645 34.0127 4.56111 33.908 4.24785C33.8032 3.93458 33.6133 3.65526 33.3587 3.43993ZM20.2614 11.0198L11.4157 17.2346L6.51849 16.2934L20.2614 11.0198ZM13.518 26.7123V22.709L15.6515 24.5426L13.518 26.7123ZM25.062 28.1792L14.5535 19.1477L29.6747 8.52526L25.062 28.1792Z" fill="#4E0007"/>
</svg>
