<svg width="36" height="36" viewBox="0 0 36 36" fill="none" xmlns="http://www.w3.org/2000/svg">
<path d="M30.6211 11.7211C30.6354 12.0136 30.6408 12.3098 30.6408 12.6023C30.6408 21.6132 23.831 32 11.3789 32C7.55337 32 3.9969 30.8714 1 28.9356C2.77263 29.1514 4.57013 29.0134 6.28975 28.5294C8.00938 28.0455 9.61742 27.225 11.022 26.115C9.60944 26.0881 8.24058 25.6174 7.10675 24.7689C5.97293 23.9203 5.13081 22.7361 4.69815 21.382C5.71337 21.5732 6.75821 21.5331 7.75603 21.2647C6.22371 20.9518 4.84593 20.1152 3.8562 18.8965C2.86646 17.6778 2.32564 16.1521 2.32538 14.5779V14.493C3.26552 15.0195 4.31697 15.3124 5.39223 15.3471C3.95722 14.3839 2.9414 12.9056 2.55211 11.2139C2.16281 9.5222 2.4294 7.7447 3.29745 6.24419C4.99728 8.35056 7.11818 10.0733 9.52239 11.3006C11.9266 12.5279 14.5603 13.2323 17.2525 13.368C17.136 12.8581 17.0777 12.3364 17.0785 11.8132C17.0785 10.9183 17.2536 10.0322 17.5938 9.20549C17.934 8.37876 18.4326 7.6276 19.0611 6.99491C19.6897 6.36222 20.4358 5.8604 21.257 5.51811C22.0782 5.17583 22.9583 4.99977 23.8471 5.00001C24.7734 4.99849 25.6901 5.1886 26.5403 5.55856C27.3906 5.92852 28.1563 6.47044 28.7899 7.15069C30.3057 6.84858 31.7594 6.28925 33.0889 5.4966C32.5832 7.07522 31.5252 8.41513 30.1117 9.26706C31.4537 9.10688 32.7643 8.74533 34 8.19443C33.0922 9.564 31.9478 10.7585 30.6211 11.7211Z" fill="#4E0007"/>
</svg>
