<svg width="1920" height="16" viewBox="0 0 1920 16" fill="none" xmlns="http://www.w3.org/2000/svg">
<path d="M-1.90735e-06 0L-12 16L12 16L-1.90735e-06 0Z" fill="#FFE4E7"/>
<path d="M24 0L12 16L36 16L24 0Z" fill="#FFE4E7"/>
<path d="M48 0L36 16L60 16L48 0Z" fill="#FFE4E7"/>
<path d="M72 0L60 16L84 16L72 0Z" fill="#FFE4E7"/>
<path d="M96 0L84 16L108 16L96 0Z" fill="#FFE4E7"/>
<path d="M120 0L108 16L132 16L120 0Z" fill="#FFE4E7"/>
<path d="M144 0L132 16L156 16L144 0Z" fill="#FFE4E7"/>
<path d="M168 0L156 16L180 16L168 0Z" fill="#FFE4E7"/>
<path d="M192 0L180 16L204 16L192 0Z" fill="#FFE4E7"/>
<path d="M216 0L204 16L228 16L216 0Z" fill="#FFE4E7"/>
<path d="M240 0L228 16L252 16L240 0Z" fill="#FFE4E7"/>
<path d="M264 0L252 16L276 16L264 0Z" fill="#FFE4E7"/>
<path d="M288 0L276 16L300 16L288 0Z" fill="#FFE4E7"/>
<path d="M312 0L300 16L324 16L312 0Z" fill="#FFE4E7"/>
<path d="M336 0L324 16L348 16L336 0Z" fill="#FFE4E7"/>
<path d="M360 0L348 16L372 16L360 0Z" fill="#FFE4E7"/>
<path d="M384 0L372 16L396 16L384 0Z" fill="#FFE4E7"/>
<path d="M408 0L396 16L420 16L408 0Z" fill="#FFE4E7"/>
<path d="M432 0L420 16L444 16L432 0Z" fill="#FFE4E7"/>
<path d="M456 0L444 16L468 16L456 0Z" fill="#FFE4E7"/>
<path d="M480 0L468 16L492 16L480 0Z" fill="#FFE4E7"/>
<path d="M504 0L492 16L516 16L504 0Z" fill="#FFE4E7"/>
<path d="M528 0L516 16L540 16L528 0Z" fill="#FFE4E7"/>
<path d="M552 0L540 16L564 16L552 0Z" fill="#FFE4E7"/>
<path d="M576 0L564 16L588 16L576 0Z" fill="#FFE4E7"/>
<path d="M600 0L588 16L612 16L600 0Z" fill="#FFE4E7"/>
<path d="M624 0L612 16L636 16L624 0Z" fill="#FFE4E7"/>
<path d="M648 0L636 16L660 16L648 0Z" fill="#FFE4E7"/>
<path d="M672 0L660 16L684 16L672 0Z" fill="#FFE4E7"/>
<path d="M696 0L684 16L708 16L696 0Z" fill="#FFE4E7"/>
<path d="M720 0L708 16L732 16L720 0Z" fill="#FFE4E7"/>
<path d="M744 0L732 16L756 16L744 0Z" fill="#FFE4E7"/>
<path d="M768 3.59836e-07L756 16L780 16L768 3.59836e-07Z" fill="#FFE4E7"/>
<path d="M792 0L780 16L804 16L792 0Z" fill="#FFE4E7"/>
<path d="M816 0L804 16L828 16L816 0Z" fill="#FFE4E7"/>
<path d="M840 0L828 16L852 16L840 0Z" fill="#FFE4E7"/>
<path d="M864 0L852 16L876 16L864 0Z" fill="#FFE4E7"/>
<path d="M888 0L876 16L900 16L888 0Z" fill="#FFE4E7"/>
<path d="M912 0L900 16L924 16L912 0Z" fill="#FFE4E7"/>
<path d="M936 0L924 16L948 16L936 0Z" fill="#FFE4E7"/>
<path d="M960 0L948 16L972 16L960 0Z" fill="#FFE4E7"/>
<path d="M984 0L972 16L996 16L984 0Z" fill="#FFE4E7"/>
<path d="M1008 0L996 16L1020 16L1008 0Z" fill="#FFE4E7"/>
<path d="M1032 0L1020 16L1044 16L1032 0Z" fill="#FFE4E7"/>
<path d="M1056 0L1044 16L1068 16L1056 0Z" fill="#FFE4E7"/>
<path d="M1080 0L1068 16L1092 16L1080 0Z" fill="#FFE4E7"/>
<path d="M1104 0L1092 16L1116 16L1104 0Z" fill="#FFE4E7"/>
<path d="M1128 0L1116 16L1140 16L1128 0Z" fill="#FFE4E7"/>
<path d="M1152 0L1140 16L1164 16L1152 0Z" fill="#FFE4E7"/>
<path d="M1176 0L1164 16L1188 16L1176 0Z" fill="#FFE4E7"/>
<path d="M1200 0L1188 16L1212 16L1200 0Z" fill="#FFE4E7"/>
<path d="M1224 0L1212 16L1236 16L1224 0Z" fill="#FFE4E7"/>
<path d="M1248 0L1236 16L1260 16L1248 0Z" fill="#FFE4E7"/>
<path d="M1272 0L1260 16L1284 16L1272 0Z" fill="#FFE4E7"/>
<path d="M1296 0L1284 16L1308 16L1296 0Z" fill="#FFE4E7"/>
<path d="M1320 0L1308 16L1332 16L1320 0Z" fill="#FFE4E7"/>
<path d="M1344 0L1332 16L1356 16L1344 0Z" fill="#FFE4E7"/>
<path d="M1368 0L1356 16L1380 16L1368 0Z" fill="#FFE4E7"/>
<path d="M1392 0L1380 16L1404 16L1392 0Z" fill="#FFE4E7"/>
<path d="M1416 0L1404 16L1428 16L1416 0Z" fill="#FFE4E7"/>
<path d="M1440 0L1428 16L1452 16L1440 0Z" fill="#FFE4E7"/>
<path d="M1464 0L1452 16L1476 16L1464 0Z" fill="#FFE4E7"/>
<path d="M1488 0L1476 16L1500 16L1488 0Z" fill="#FFE4E7"/>
<path d="M1512 0L1500 16L1524 16L1512 0Z" fill="#FFE4E7"/>
<path d="M1536 0L1524 16L1548 16L1536 0Z" fill="#FFE4E7"/>
<path d="M1560 0L1548 16L1572 16L1560 0Z" fill="#FFE4E7"/>
<path d="M1584 0L1572 16L1596 16L1584 0Z" fill="#FFE4E7"/>
<path d="M1608 0L1596 16L1620 16L1608 0Z" fill="#FFE4E7"/>
<path d="M1632 0L1620 16L1644 16L1632 0Z" fill="#FFE4E7"/>
<path d="M1656 0L1644 16L1668 16L1656 0Z" fill="#FFE4E7"/>
<path d="M1680 0L1668 16L1692 16L1680 0Z" fill="#FFE4E7"/>
<path d="M1704 0L1692 16L1716 16L1704 0Z" fill="#FFE4E7"/>
<path d="M1728 0L1716 16L1740 16L1728 0Z" fill="#FFE4E7"/>
<path d="M1752 0L1740 16L1764 16L1752 0Z" fill="#FFE4E7"/>
<path d="M1776 0L1764 16L1788 16L1776 0Z" fill="#FFE4E7"/>
<path d="M1800 0L1788 16L1812 16L1800 0Z" fill="#FFE4E7"/>
<path d="M1824 0L1812 16L1836 16L1824 0Z" fill="#FFE4E7"/>
<path d="M1848 0L1836 16L1860 16L1848 0Z" fill="#FFE4E7"/>
<path d="M1872 0L1860 16L1884 16L1872 0Z" fill="#FFE4E7"/>
<path d="M1896 0L1884 16L1908 16L1896 0Z" fill="#FFE4E7"/>
<path d="M1920 0L1908 16L1932 16L1920 0Z" fill="#FFE4E7"/>
</svg>
