<svg width="1920" height="5204" viewBox="0 0 1920 5204" fill="none" xmlns="http://www.w3.org/2000/svg">
<path fill-rule="evenodd" clip-rule="evenodd" d="M0 16L1.90735e-06 2100H1920V16L1908 0L1896 16L1884 0L1872 16L1860 0L1848 16L1836 0L1824 16L1812 0L1800 16L1788 0L1776 16L1764 0L1752 16L1740 0L1728 16L1716 0L1704 16L1692 0L1680 16L1668 0L1656 16L1644 0L1632 16L1620 0L1608 16L1596 0L1584 16L1572 0L1560 16L1548 0L1536 16L1524 0L1512 16L1500 0L1488 16L1476 0L1464 16L1452 0L1440 16L1428 0L1416 16L1404 0L1392 16L1380 0L1368 16L1356 0L1344 16L1332 0L1320 16L1308 0L1296 16L1284 0L1272 16L1260 0L1248 16L1236 0L1224 16L1212 0L1200 16L1188 0L1176 16L1164 0L1152 16L1140 0L1128 16L1116 0L1104 16L1092 0L1080 16L1068 0L1056 16L1044 0L1032 16L1020 0L1008 16L996 0L984 16L972 0L960 16L948 0L936 16L924 0L912 16L900 0L888 16L876 0L864 16L852 0L840 16L828 0L816 16L804 0L792 16L780 0L768 16L756 0L744 16L732 0L720 16L708 0L696 16L684 0L672 16L660 0L648 16L636 0L624 16L612 0L600 16L588 0L576 16L564 0L552 16L540 0L528 16L516 0L504 16L492 0L480 16L468 0L456 16L444 0L432 16L420 0L408 16L396 0L384 16L372 0L360 16L348 0L336 16L324 0L312 16L300 0L288 16L276 0L264 16L252 0L240 16L228 0L216 16L204 0L192 16L180 0L168 16L156 0L144 16L132 0L120 16L108 0L96 16L84 0L72 16L60 0L48 16L36 0L24 16L12 0L0 16Z" fill="#4E0007"/>
<path fill-rule="evenodd" clip-rule="evenodd" d="M0 5188L2.03669e-06 2047.5H1920V5188L1908 5204L1896 5188L1884 5204L1872 5188L1860 5204L1848 5188L1836 5204L1824 5188L1812 5204L1800 5188L1788 5204L1776 5188L1764 5204L1752 5188L1740 5204L1728 5188L1716 5204L1704 5188L1692 5204L1680 5188L1668 5204L1656 5188L1644 5204L1632 5188L1620 5204L1608 5188L1596 5204L1584 5188L1572 5204L1560 5188L1548 5204L1536 5188L1524 5204L1512 5188L1500 5204L1488 5188L1476 5204L1464 5188L1452 5204L1440 5188L1428 5204L1416 5188L1404 5204L1392 5188L1380 5204L1368 5188L1356 5204L1344 5188L1332 5204L1320 5188L1308 5204L1296 5188L1284 5204L1272 5188L1260 5204L1248 5188L1236 5204L1224 5188L1212 5204L1200 5188L1188 5204L1176 5188L1164 5204L1152 5188L1140 5204L1128 5188L1116 5204L1104 5188L1092 5204L1080 5188L1068 5204L1056 5188L1044 5204L1032 5188L1020 5204L1008 5188L996 5204L984 5188L972 5204L960 5188L948 5204L936 5188L924 5204L912 5188L900 5204L888 5188L876 5204L864 5188L852 5204L840 5188L828 5204L816 5188L804 5204L792 5188L780 5204L768 5188L756 5204L744 5188L732 5204L720 5188L708 5204L696 5188L684 5204L672 5188L660 5204L648 5188L636 5204L624 5188L612 5204L600 5188L588 5204L576 5188L564 5204L552 5188L540 5204L528 5188L516 5204L504 5188L492 5204L480 5188L468 5204L456 5188L444 5204L432 5188L420 5204L408 5188L396 5204L384 5188L372 5204L360 5188L348 5204L336 5188L324 5204L312 5188L300 5204L288 5188L276 5204L264 5188L252 5204L240 5188L228 5204L216 5188L204 5204L192 5188L180 5204L168 5188L156 5204L144 5188L132 5204L120 5188L108 5204L96 5188L84 5204L72 5188L60 5204L48 5188L36 5204L24 5188L12 5204L0 5188Z" fill="#4E0007"/>
</svg>
