<svg width="1920" height="16" viewBox="0 0 1920 16" fill="none" xmlns="http://www.w3.org/2000/svg">
<path d="M-1.90735e-06 16L-12 0L12 1.61515e-06L-1.90735e-06 16Z" fill="#FFE4E7"/>
<path d="M24 16L12 0L36 1.61515e-06L24 16Z" fill="#FFE4E7"/>
<path d="M48 16L36 0L60 1.61515e-06L48 16Z" fill="#FFE4E7"/>
<path d="M72 16L60 0L84 1.61515e-06L72 16Z" fill="#FFE4E7"/>
<path d="M96 16L84 0L108 1.61515e-06L96 16Z" fill="#FFE4E7"/>
<path d="M120 16L108 0L132 1.61515e-06L120 16Z" fill="#FFE4E7"/>
<path d="M144 16L132 0L156 1.61515e-06L144 16Z" fill="#FFE4E7"/>
<path d="M168 16L156 0L180 1.61515e-06L168 16Z" fill="#FFE4E7"/>
<path d="M192 16L180 0L204 1.61515e-06L192 16Z" fill="#FFE4E7"/>
<path d="M216 16L204 0L228 1.61515e-06L216 16Z" fill="#FFE4E7"/>
<path d="M240 16L228 0L252 1.61515e-06L240 16Z" fill="#FFE4E7"/>
<path d="M264 16L252 0L276 1.61515e-06L264 16Z" fill="#FFE4E7"/>
<path d="M288 16L276 0L300 1.61515e-06L288 16Z" fill="#FFE4E7"/>
<path d="M312 16L300 0L324 1.61515e-06L312 16Z" fill="#FFE4E7"/>
<path d="M336 16L324 0L348 1.61515e-06L336 16Z" fill="#FFE4E7"/>
<path d="M360 16L348 0L372 1.61515e-06L360 16Z" fill="#FFE4E7"/>
<path d="M384 16L372 0L396 1.61515e-06L384 16Z" fill="#FFE4E7"/>
<path d="M408 16L396 0L420 1.61515e-06L408 16Z" fill="#FFE4E7"/>
<path d="M432 16L420 0L444 1.61515e-06L432 16Z" fill="#FFE4E7"/>
<path d="M456 16L444 0L468 1.61515e-06L456 16Z" fill="#FFE4E7"/>
<path d="M480 16L468 0L492 1.61515e-06L480 16Z" fill="#FFE4E7"/>
<path d="M504 16L492 0L516 1.61515e-06L504 16Z" fill="#FFE4E7"/>
<path d="M528 16L516 0L540 1.61515e-06L528 16Z" fill="#FFE4E7"/>
<path d="M552 16L540 0L564 1.61515e-06L552 16Z" fill="#FFE4E7"/>
<path d="M576 16L564 0L588 1.61515e-06L576 16Z" fill="#FFE4E7"/>
<path d="M600 16L588 0L612 1.61515e-06L600 16Z" fill="#FFE4E7"/>
<path d="M624 16L612 0L636 1.61515e-06L624 16Z" fill="#FFE4E7"/>
<path d="M648 16L636 0L660 1.61515e-06L648 16Z" fill="#FFE4E7"/>
<path d="M672 16L660 0L684 1.61515e-06L672 16Z" fill="#FFE4E7"/>
<path d="M696 16L684 0L708 1.61515e-06L696 16Z" fill="#FFE4E7"/>
<path d="M720 16L708 0L732 1.61515e-06L720 16Z" fill="#FFE4E7"/>
<path d="M744 16L732 0L756 1.61515e-06L744 16Z" fill="#FFE4E7"/>
<path d="M768 16L756 0L780 1.61515e-06L768 16Z" fill="#FFE4E7"/>
<path d="M792 16L780 0L804 1.61515e-06L792 16Z" fill="#FFE4E7"/>
<path d="M816 16L804 0L828 1.61515e-06L816 16Z" fill="#FFE4E7"/>
<path d="M840 16L828 0L852 1.61515e-06L840 16Z" fill="#FFE4E7"/>
<path d="M864 16L852 0L876 1.61515e-06L864 16Z" fill="#FFE4E7"/>
<path d="M888 16L876 0L900 1.61515e-06L888 16Z" fill="#FFE4E7"/>
<path d="M912 16L900 0L924 1.61515e-06L912 16Z" fill="#FFE4E7"/>
<path d="M936 16L924 0L948 1.61515e-06L936 16Z" fill="#FFE4E7"/>
<path d="M960 16L948 0L972 1.61515e-06L960 16Z" fill="#FFE4E7"/>
<path d="M984 16L972 0L996 1.61515e-06L984 16Z" fill="#FFE4E7"/>
<path d="M1008 16L996 0L1020 1.61515e-06L1008 16Z" fill="#FFE4E7"/>
<path d="M1032 16L1020 0L1044 1.61515e-06L1032 16Z" fill="#FFE4E7"/>
<path d="M1056 16L1044 0L1068 1.61515e-06L1056 16Z" fill="#FFE4E7"/>
<path d="M1080 16L1068 0L1092 1.61515e-06L1080 16Z" fill="#FFE4E7"/>
<path d="M1104 16L1092 0L1116 1.61515e-06L1104 16Z" fill="#FFE4E7"/>
<path d="M1128 16L1116 0L1140 1.61515e-06L1128 16Z" fill="#FFE4E7"/>
<path d="M1152 16L1140 0L1164 1.61515e-06L1152 16Z" fill="#FFE4E7"/>
<path d="M1176 16L1164 0L1188 1.61515e-06L1176 16Z" fill="#FFE4E7"/>
<path d="M1200 16L1188 0L1212 1.61515e-06L1200 16Z" fill="#FFE4E7"/>
<path d="M1224 16L1212 0L1236 1.61515e-06L1224 16Z" fill="#FFE4E7"/>
<path d="M1248 16L1236 0L1260 1.61515e-06L1248 16Z" fill="#FFE4E7"/>
<path d="M1272 16L1260 0L1284 1.61515e-06L1272 16Z" fill="#FFE4E7"/>
<path d="M1296 16L1284 0L1308 1.61515e-06L1296 16Z" fill="#FFE4E7"/>
<path d="M1320 16L1308 0L1332 1.61515e-06L1320 16Z" fill="#FFE4E7"/>
<path d="M1344 16L1332 0L1356 1.61515e-06L1344 16Z" fill="#FFE4E7"/>
<path d="M1368 16L1356 0L1380 1.61515e-06L1368 16Z" fill="#FFE4E7"/>
<path d="M1392 16L1380 0L1404 1.61515e-06L1392 16Z" fill="#FFE4E7"/>
<path d="M1416 16L1404 0L1428 1.61515e-06L1416 16Z" fill="#FFE4E7"/>
<path d="M1440 16L1428 0L1452 1.61515e-06L1440 16Z" fill="#FFE4E7"/>
<path d="M1464 16L1452 0L1476 1.61515e-06L1464 16Z" fill="#FFE4E7"/>
<path d="M1488 16L1476 0L1500 1.61515e-06L1488 16Z" fill="#FFE4E7"/>
<path d="M1512 16L1500 0L1524 1.61515e-06L1512 16Z" fill="#FFE4E7"/>
<path d="M1536 16L1524 0L1548 1.61515e-06L1536 16Z" fill="#FFE4E7"/>
<path d="M1560 16L1548 0L1572 1.61515e-06L1560 16Z" fill="#FFE4E7"/>
<path d="M1584 16L1572 0L1596 1.61515e-06L1584 16Z" fill="#FFE4E7"/>
<path d="M1608 16L1596 0L1620 1.61515e-06L1608 16Z" fill="#FFE4E7"/>
<path d="M1632 16L1620 0L1644 1.61515e-06L1632 16Z" fill="#FFE4E7"/>
<path d="M1656 16L1644 0L1668 1.61515e-06L1656 16Z" fill="#FFE4E7"/>
<path d="M1680 16L1668 0L1692 1.61515e-06L1680 16Z" fill="#FFE4E7"/>
<path d="M1704 16L1692 0L1716 1.61515e-06L1704 16Z" fill="#FFE4E7"/>
<path d="M1728 16L1716 0L1740 1.61515e-06L1728 16Z" fill="#FFE4E7"/>
<path d="M1752 16L1740 0L1764 1.61515e-06L1752 16Z" fill="#FFE4E7"/>
<path d="M1776 16L1764 0L1788 1.61515e-06L1776 16Z" fill="#FFE4E7"/>
<path d="M1800 16L1788 0L1812 1.61515e-06L1800 16Z" fill="#FFE4E7"/>
<path d="M1824 16L1812 0L1836 1.61515e-06L1824 16Z" fill="#FFE4E7"/>
<path d="M1848 16L1836 0L1860 1.61515e-06L1848 16Z" fill="#FFE4E7"/>
<path d="M1872 16L1860 0L1884 1.61515e-06L1872 16Z" fill="#FFE4E7"/>
<path d="M1896 16L1884 0L1908 1.61515e-06L1896 16Z" fill="#FFE4E7"/>
<path d="M1920 16L1908 0L1932 1.61515e-06L1920 16Z" fill="#FFE4E7"/>
</svg>
